<?xml version="1.0" encoding="UTF-8" standalone="no"?>
<!DOCTYPE svg PUBLIC "-//W3C//DTD SVG 1.1//EN"
 "http://www.w3.org/Graphics/SVG/1.1/DTD/svg11.dtd">
<!-- Generated by graphviz version 2.43.0 (0)
 -->
<!-- Title: G Pages: 1 -->
<svg width="2689pt" height="596pt"
 viewBox="0.00 0.00 2689.00 596.00" xmlns="http://www.w3.org/2000/svg" xmlns:xlink="http://www.w3.org/1999/xlink">
<g id="graph0" class="graph" transform="scale(1 1) rotate(0) translate(4 592)">
<title>G</title>
<polygon fill="white" stroke="transparent" points="-4,4 -4,-592 2685,-592 2685,4 -4,4"/>
<!-- data.azurerm_storage_account.backup -->
<g id="node1" class="node">
<title>data.azurerm_storage_account.backup</title>
<polygon fill="none" stroke="black" points="917,-204 633,-204 633,-168 917,-168 917,-204"/>
<text text-anchor="middle" x="775" y="-182.3" font-family="sans-serif" font-size="14.00">data.azurerm_storage_account.backup</text>
</g>
<!-- azurerm_storage_account.backup -->
<g id="node29" class="node">
<title>azurerm_storage_account.backup</title>
<polygon fill="none" stroke="black" points="550.5,-204 301.5,-204 301.5,-168 550.5,-168 550.5,-204"/>
<text text-anchor="middle" x="426" y="-182.3" font-family="sans-serif" font-size="14.00">azurerm_storage_account.backup</text>
</g>
<!-- data.azurerm_storage_account.backup&#45;&gt;azurerm_storage_account.backup -->
<g id="edge1" class="edge">
<title>data.azurerm_storage_account.backup&#45;&gt;azurerm_storage_account.backup</title>
<path fill="none" stroke="black" d="M632.86,-186C609.06,-186 584.41,-186 560.79,-186"/>
<polygon fill="black" stroke="black" points="560.74,-182.5 550.74,-186 560.74,-189.5 560.74,-182.5"/>
</g>
<!-- azurerm_container_group.backend1 -->
<g id="node2" class="node">
<title>azurerm_container_group.backend1</title>
<polygon fill="none" stroke="black" points="1699,-243 1434,-243 1434,-207 1699,-207 1699,-243"/>
<text text-anchor="middle" x="1566.5" y="-221.3" font-family="sans-serif" font-size="14.00">azurerm_container_group.backend1</text>
</g>
<!-- azurerm_container_group.mongo -->
<g id="node6" class="node">
<title>azurerm_container_group.mongo</title>
<polygon fill="none" stroke="black" points="1289.5,-166 1044.5,-166 1044.5,-130 1289.5,-130 1289.5,-166"/>
<text text-anchor="middle" x="1167" y="-144.3" font-family="sans-serif" font-size="14.00">azurerm_container_group.mongo</text>
</g>
<!-- azurerm_container_group.backend1&#45;&gt;azurerm_container_group.mongo -->
<g id="edge2" class="edge">
<title>azurerm_container_group.backend1&#45;&gt;azurerm_container_group.mongo</title>
<path fill="none" stroke="black" d="M1507,-206.92C1470.96,-196.33 1423.65,-183.44 1381,-175 1354.78,-169.81 1326.55,-165.41 1299.47,-161.77"/>
<polygon fill="black" stroke="black" points="1299.93,-158.3 1289.56,-160.46 1299.01,-165.24 1299.93,-158.3"/>
</g>
<!-- azurerm_public_ip.proxy -->
<g id="node27" class="node">
<title>azurerm_public_ip.proxy</title>
<polygon fill="none" stroke="black" points="867.5,-58 682.5,-58 682.5,-22 867.5,-22 867.5,-58"/>
<text text-anchor="middle" x="775" y="-36.3" font-family="sans-serif" font-size="14.00">azurerm_public_ip.proxy</text>
</g>
<!-- azurerm_container_group.backend1&#45;&gt;azurerm_public_ip.proxy -->
<g id="edge3" class="edge">
<title>azurerm_container_group.backend1&#45;&gt;azurerm_public_ip.proxy</title>
<path fill="none" stroke="black" d="M1482.59,-206.88C1459.83,-199.26 1436.17,-188.65 1417,-174 1394.37,-156.71 1405.55,-135.43 1381,-121 1298.68,-72.62 1047.21,-98.54 953,-83 918.93,-77.38 881.73,-68.73 850.26,-60.66"/>
<polygon fill="black" stroke="black" points="850.81,-57.19 840.26,-58.07 849.06,-63.97 850.81,-57.19"/>
</g>
<!-- azurerm_subnet.proxy -->
<g id="node33" class="node">
<title>azurerm_subnet.proxy</title>
<polygon fill="none" stroke="black" points="861,-296 689,-296 689,-260 861,-260 861,-296"/>
<text text-anchor="middle" x="775" y="-274.3" font-family="sans-serif" font-size="14.00">azurerm_subnet.proxy</text>
</g>
<!-- azurerm_container_group.backend1&#45;&gt;azurerm_subnet.proxy -->
<g id="edge4" class="edge">
<title>azurerm_container_group.backend1&#45;&gt;azurerm_subnet.proxy</title>
<path fill="none" stroke="black" d="M1490.56,-243.06C1457.22,-250.31 1417.36,-257.9 1381,-262 1201.93,-282.17 991.26,-282.5 871.7,-280.51"/>
<polygon fill="black" stroke="black" points="871.54,-277.01 861.48,-280.34 871.42,-284.01 871.54,-277.01"/>
</g>
<!-- azurerm_container_group.backend2 -->
<g id="node3" class="node">
<title>azurerm_container_group.backend2</title>
<polygon fill="none" stroke="black" points="1699,-165 1434,-165 1434,-129 1699,-129 1699,-165"/>
<text text-anchor="middle" x="1566.5" y="-143.3" font-family="sans-serif" font-size="14.00">azurerm_container_group.backend2</text>
</g>
<!-- azurerm_container_group.backend2&#45;&gt;azurerm_container_group.mongo -->
<g id="edge5" class="edge">
<title>azurerm_container_group.backend2&#45;&gt;azurerm_container_group.mongo</title>
<path fill="none" stroke="black" d="M1433.97,-147.33C1390.76,-147.44 1342.75,-147.56 1299.55,-147.67"/>
<polygon fill="black" stroke="black" points="1299.54,-144.17 1289.54,-147.69 1299.55,-151.17 1299.54,-144.17"/>
</g>
<!-- azurerm_container_group.backend2&#45;&gt;azurerm_public_ip.proxy -->
<g id="edge6" class="edge">
<title>azurerm_container_group.backend2&#45;&gt;azurerm_public_ip.proxy</title>
<path fill="none" stroke="black" d="M1455.48,-128.93C1442.23,-125.12 1429.12,-120.53 1417,-115 1398.8,-106.7 1399.71,-95.07 1381,-88 1335.31,-70.73 1038.39,-53.3 878.16,-45"/>
<polygon fill="black" stroke="black" points="877.98,-41.48 867.81,-44.46 877.62,-48.47 877.98,-41.48"/>
</g>
<!-- azurerm_container_group.backend2&#45;&gt;azurerm_subnet.proxy -->
<g id="edge7" class="edge">
<title>azurerm_container_group.backend2&#45;&gt;azurerm_subnet.proxy</title>
<path fill="none" stroke="black" d="M1495.5,-165.02C1469.87,-173.15 1441.24,-184.1 1417,-198 1398.69,-208.51 1400.5,-220.9 1381,-229 1292.91,-265.61 1048.06,-254.04 953,-262 926.42,-264.23 897.6,-266.77 871.1,-269.17"/>
<polygon fill="black" stroke="black" points="870.7,-265.69 861.06,-270.08 871.33,-272.66 870.7,-265.69"/>
</g>
<!-- azurerm_container_group.frontend1 -->
<g id="node4" class="node">
<title>azurerm_container_group.frontend1</title>
<polygon fill="none" stroke="black" points="2131.5,-268 1865.5,-268 1865.5,-232 2131.5,-232 2131.5,-268"/>
<text text-anchor="middle" x="1998.5" y="-246.3" font-family="sans-serif" font-size="14.00">azurerm_container_group.frontend1</text>
</g>
<!-- azurerm_container_group.frontend1&#45;&gt;azurerm_container_group.backend1 -->
<g id="edge8" class="edge">
<title>azurerm_container_group.frontend1&#45;&gt;azurerm_container_group.backend1</title>
<path fill="none" stroke="black" d="M1865.27,-242.31C1815.86,-239.44 1759.56,-236.17 1709.31,-233.24"/>
<polygon fill="black" stroke="black" points="1709.2,-229.73 1699.02,-232.65 1708.8,-236.72 1709.2,-229.73"/>
</g>
<!-- azurerm_subnet.frontend -->
<g id="node32" class="node">
<title>azurerm_subnet.frontend</title>
<polygon fill="none" stroke="black" points="1662.5,-328 1470.5,-328 1470.5,-292 1662.5,-292 1662.5,-328"/>
<text text-anchor="middle" x="1566.5" y="-306.3" font-family="sans-serif" font-size="14.00">azurerm_subnet.frontend</text>
</g>
<!-- azurerm_container_group.frontend1&#45;&gt;azurerm_subnet.frontend -->
<g id="edge9" class="edge">
<title>azurerm_container_group.frontend1&#45;&gt;azurerm_subnet.frontend</title>
<path fill="none" stroke="black" d="M1865.42,-262.87C1828.64,-266.9 1788.71,-271.7 1752,-277 1725.73,-280.79 1697.46,-285.52 1671.14,-290.2"/>
<polygon fill="black" stroke="black" points="1670.39,-286.78 1661.16,-291.98 1671.62,-293.67 1670.39,-286.78"/>
</g>
<!-- azurerm_container_group.frontend2 -->
<g id="node5" class="node">
<title>azurerm_container_group.frontend2</title>
<polygon fill="none" stroke="black" points="2131.5,-322 1865.5,-322 1865.5,-286 2131.5,-286 2131.5,-322"/>
<text text-anchor="middle" x="1998.5" y="-300.3" font-family="sans-serif" font-size="14.00">azurerm_container_group.frontend2</text>
</g>
<!-- azurerm_container_group.frontend2&#45;&gt;azurerm_container_group.backend1 -->
<g id="edge10" class="edge">
<title>azurerm_container_group.frontend2&#45;&gt;azurerm_container_group.backend1</title>
<path fill="none" stroke="black" d="M1865.35,-293.51C1828.47,-289.49 1788.51,-284.1 1752,-277 1711.69,-269.16 1667.37,-256.79 1632.28,-246.09"/>
<polygon fill="black" stroke="black" points="1633.22,-242.72 1622.63,-243.12 1631.16,-249.41 1633.22,-242.72"/>
</g>
<!-- azurerm_container_group.frontend2&#45;&gt;azurerm_subnet.frontend -->
<g id="edge11" class="edge">
<title>azurerm_container_group.frontend2&#45;&gt;azurerm_subnet.frontend</title>
<path fill="none" stroke="black" d="M1865.27,-305.85C1803.45,-306.71 1730.86,-307.72 1672.82,-308.53"/>
<polygon fill="black" stroke="black" points="1672.48,-305.03 1662.53,-308.67 1672.58,-312.03 1672.48,-305.03"/>
</g>
<!-- azurerm_container_registry.gpa -->
<g id="node7" class="node">
<title>azurerm_container_registry.gpa</title>
<polygon fill="none" stroke="black" points="543,-139 309,-139 309,-103 543,-103 543,-139"/>
<text text-anchor="middle" x="426" y="-117.3" font-family="sans-serif" font-size="14.00">azurerm_container_registry.gpa</text>
</g>
<!-- azurerm_container_group.mongo&#45;&gt;azurerm_container_registry.gpa -->
<g id="edge12" class="edge">
<title>azurerm_container_group.mongo&#45;&gt;azurerm_container_registry.gpa</title>
<path fill="none" stroke="black" d="M1044.33,-132.88C1014.31,-128.29 982.36,-122.65 953,-116 936.68,-112.3 933.55,-107.47 917,-105 792.16,-86.35 759.13,-100.11 633,-105 607.18,-106 579.57,-107.71 553.23,-109.64"/>
<polygon fill="black" stroke="black" points="552.92,-106.15 543.21,-110.39 553.44,-113.13 552.92,-106.15"/>
</g>
<!-- azurerm_storage_share.DB&#45;Backup -->
<g id="node30" class="node">
<title>azurerm_storage_share.DB&#45;Backup</title>
<polygon fill="none" stroke="black" points="904,-150 646,-150 646,-114 904,-114 904,-150"/>
<text text-anchor="middle" x="775" y="-128.3" font-family="sans-serif" font-size="14.00">azurerm_storage_share.DB&#45;Backup</text>
</g>
<!-- azurerm_container_group.mongo&#45;&gt;azurerm_storage_share.DB&#45;Backup -->
<g id="edge13" class="edge">
<title>azurerm_container_group.mongo&#45;&gt;azurerm_storage_share.DB&#45;Backup</title>
<path fill="none" stroke="black" d="M1044.47,-143.01C1003.18,-141.32 956.75,-139.42 914.25,-137.67"/>
<polygon fill="black" stroke="black" points="914.25,-134.17 904.11,-137.26 913.96,-141.16 914.25,-134.17"/>
</g>
<!-- azurerm_resource_group.GPA -->
<g id="node28" class="node">
<title>azurerm_resource_group.GPA</title>
<polygon fill="none" stroke="black" points="219,-326 0,-326 0,-290 219,-290 219,-326"/>
<text text-anchor="middle" x="109.5" y="-304.3" font-family="sans-serif" font-size="14.00">azurerm_resource_group.GPA</text>
</g>
<!-- azurerm_container_registry.gpa&#45;&gt;azurerm_resource_group.GPA -->
<g id="edge14" class="edge">
<title>azurerm_container_registry.gpa&#45;&gt;azurerm_resource_group.GPA</title>
<path fill="none" stroke="black" d="M308.72,-137.49C290.07,-142.78 271.49,-149.77 255,-159 200.3,-189.62 153.22,-247.42 128.66,-281.33"/>
<polygon fill="black" stroke="black" points="125.57,-279.64 122.62,-289.81 131.27,-283.69 125.57,-279.64"/>
</g>
<!-- azurerm_firewall.gpa&#45;firewall -->
<g id="node8" class="node">
<title>azurerm_firewall.gpa&#45;firewall</title>
<polygon fill="none" stroke="black" points="1274.5,-530 1059.5,-530 1059.5,-494 1274.5,-494 1274.5,-530"/>
<text text-anchor="middle" x="1167" y="-508.3" font-family="sans-serif" font-size="14.00">azurerm_firewall.gpa&#45;firewall</text>
</g>
<!-- azurerm_firewall_policy.GPA&#45;fwpolicy -->
<g id="node9" class="node">
<title>azurerm_firewall_policy.GPA&#45;fwpolicy</title>
<polygon fill="none" stroke="black" points="909,-588 641,-588 641,-552 909,-552 909,-588"/>
<text text-anchor="middle" x="775" y="-566.3" font-family="sans-serif" font-size="14.00">azurerm_firewall_policy.GPA&#45;fwpolicy</text>
</g>
<!-- azurerm_firewall.gpa&#45;firewall&#45;&gt;azurerm_firewall_policy.GPA&#45;fwpolicy -->
<g id="edge15" class="edge">
<title>azurerm_firewall.gpa&#45;firewall&#45;&gt;azurerm_firewall_policy.GPA&#45;fwpolicy</title>
<path fill="none" stroke="black" d="M1059.41,-524.51C1025.37,-528.77 987.55,-533.79 953,-539 930.7,-542.36 906.87,-546.3 884.17,-550.22"/>
<polygon fill="black" stroke="black" points="883.42,-546.8 874.17,-551.95 884.62,-553.69 883.42,-546.8"/>
</g>
<!-- azurerm_public_ip.firewall -->
<g id="node25" class="node">
<title>azurerm_public_ip.firewall</title>
<polygon fill="none" stroke="black" points="873,-534 677,-534 677,-498 873,-498 873,-534"/>
<text text-anchor="middle" x="775" y="-512.3" font-family="sans-serif" font-size="14.00">azurerm_public_ip.firewall</text>
</g>
<!-- azurerm_firewall.gpa&#45;firewall&#45;&gt;azurerm_public_ip.firewall -->
<g id="edge16" class="edge">
<title>azurerm_firewall.gpa&#45;firewall&#45;&gt;azurerm_public_ip.firewall</title>
<path fill="none" stroke="black" d="M1059.43,-513.09C1004.65,-513.65 938.06,-514.34 883.2,-514.9"/>
<polygon fill="black" stroke="black" points="883.06,-511.4 873.09,-515 883.13,-518.4 883.06,-511.4"/>
</g>
<!-- azurerm_subnet.firewall -->
<g id="node31" class="node">
<title>azurerm_subnet.firewall</title>
<polygon fill="none" stroke="black" points="866,-426 684,-426 684,-390 866,-390 866,-426"/>
<text text-anchor="middle" x="775" y="-404.3" font-family="sans-serif" font-size="14.00">azurerm_subnet.firewall</text>
</g>
<!-- azurerm_firewall.gpa&#45;firewall&#45;&gt;azurerm_subnet.firewall -->
<g id="edge17" class="edge">
<title>azurerm_firewall.gpa&#45;firewall&#45;&gt;azurerm_subnet.firewall</title>
<path fill="none" stroke="black" d="M1113.53,-493.92C1063.47,-477.1 985.71,-452.15 917,-435 903.87,-431.72 889.96,-428.62 876.19,-425.77"/>
<polygon fill="black" stroke="black" points="876.71,-422.3 866.21,-423.73 875.31,-429.16 876.71,-422.3"/>
</g>
<!-- azurerm_firewall_policy.GPA&#45;fwpolicy&#45;&gt;azurerm_resource_group.GPA -->
<g id="edge18" class="edge">
<title>azurerm_firewall_policy.GPA&#45;fwpolicy&#45;&gt;azurerm_resource_group.GPA</title>
<path fill="none" stroke="black" d="M640.83,-574.37C530.47,-572.23 373.14,-555.44 255,-487 192.13,-450.58 145.65,-375.53 124.01,-335.14"/>
<polygon fill="black" stroke="black" points="127.03,-333.37 119.28,-326.14 120.83,-336.62 127.03,-333.37"/>
</g>
<!-- azurerm_firewall_policy_rule_collection_group.gpa -->
<g id="node10" class="node">
<title>azurerm_firewall_policy_rule_collection_group.gpa</title>
<polygon fill="none" stroke="black" points="1347.5,-584 986.5,-584 986.5,-548 1347.5,-548 1347.5,-584"/>
<text text-anchor="middle" x="1167" y="-562.3" font-family="sans-serif" font-size="14.00">azurerm_firewall_policy_rule_collection_group.gpa</text>
</g>
<!-- azurerm_firewall_policy_rule_collection_group.gpa&#45;&gt;azurerm_firewall_policy.GPA&#45;fwpolicy -->
<g id="edge19" class="edge">
<title>azurerm_firewall_policy_rule_collection_group.gpa&#45;&gt;azurerm_firewall_policy.GPA&#45;fwpolicy</title>
<path fill="none" stroke="black" d="M986.41,-567.84C963.97,-568.07 941.27,-568.3 919.48,-568.53"/>
<polygon fill="black" stroke="black" points="919.17,-565.03 909.2,-568.63 919.24,-572.03 919.17,-565.03"/>
</g>
<!-- azurerm_firewall_policy_rule_collection_group.gpa&#45;&gt;azurerm_public_ip.firewall -->
<g id="edge20" class="edge">
<title>azurerm_firewall_policy_rule_collection_group.gpa&#45;&gt;azurerm_public_ip.firewall</title>
<path fill="none" stroke="black" d="M1023.35,-547.98C999.84,-544.99 975.74,-541.92 953,-539 930.51,-536.11 906.42,-533 883.47,-530.02"/>
<polygon fill="black" stroke="black" points="883.74,-526.53 873.37,-528.71 882.84,-533.47 883.74,-526.53"/>
</g>
<!-- azurerm_public_ip.frontend -->
<g id="node26" class="node">
<title>azurerm_public_ip.frontend</title>
<polygon fill="none" stroke="black" points="878,-480 672,-480 672,-444 878,-444 878,-480"/>
<text text-anchor="middle" x="775" y="-458.3" font-family="sans-serif" font-size="14.00">azurerm_public_ip.frontend</text>
</g>
<!-- azurerm_firewall_policy_rule_collection_group.gpa&#45;&gt;azurerm_public_ip.frontend -->
<g id="edge21" class="edge">
<title>azurerm_firewall_policy_rule_collection_group.gpa&#45;&gt;azurerm_public_ip.frontend</title>
<path fill="none" stroke="black" d="M986.24,-554.35C974.61,-550.25 963.41,-545.19 953,-539 929.46,-525.01 940.08,-503.73 917,-489 907.99,-483.25 898.05,-478.67 887.73,-475.03"/>
<polygon fill="black" stroke="black" points="888.76,-471.68 878.17,-471.94 886.61,-478.34 888.76,-471.68"/>
</g>
<!-- azurerm_lb.frontend -->
<g id="node11" class="node">
<title>azurerm_lb.frontend</title>
<polygon fill="none" stroke="black" points="1645,-480 1488,-480 1488,-444 1645,-444 1645,-480"/>
<text text-anchor="middle" x="1566.5" y="-458.3" font-family="sans-serif" font-size="14.00">azurerm_lb.frontend</text>
</g>
<!-- azurerm_lb.frontend&#45;&gt;azurerm_public_ip.frontend -->
<g id="edge22" class="edge">
<title>azurerm_lb.frontend&#45;&gt;azurerm_public_ip.frontend</title>
<path fill="none" stroke="black" d="M1487.64,-462C1347.13,-462 1050.71,-462 888.28,-462"/>
<polygon fill="black" stroke="black" points="888.26,-458.5 878.26,-462 888.26,-465.5 888.26,-458.5"/>
</g>
<!-- azurerm_lb.proxy -->
<g id="node12" class="node">
<title>azurerm_lb.proxy</title>
<polygon fill="none" stroke="black" points="1235.5,-36 1098.5,-36 1098.5,0 1235.5,0 1235.5,-36"/>
<text text-anchor="middle" x="1167" y="-14.3" font-family="sans-serif" font-size="14.00">azurerm_lb.proxy</text>
</g>
<!-- azurerm_lb.proxy&#45;&gt;azurerm_public_ip.proxy -->
<g id="edge23" class="edge">
<title>azurerm_lb.proxy&#45;&gt;azurerm_public_ip.proxy</title>
<path fill="none" stroke="black" d="M1098.07,-21.83C1037.22,-25.26 947.15,-30.35 877.72,-34.26"/>
<polygon fill="black" stroke="black" points="877.42,-30.77 867.63,-34.83 877.81,-37.76 877.42,-30.77"/>
</g>
<!-- azurerm_lb_backend_address_pool.frontend -->
<g id="node13" class="node">
<title>azurerm_lb_backend_address_pool.frontend</title>
<polygon fill="none" stroke="black" points="2158.5,-430 1838.5,-430 1838.5,-394 2158.5,-394 2158.5,-430"/>
<text text-anchor="middle" x="1998.5" y="-408.3" font-family="sans-serif" font-size="14.00">azurerm_lb_backend_address_pool.frontend</text>
</g>
<!-- azurerm_lb_backend_address_pool.frontend&#45;&gt;azurerm_lb.frontend -->
<g id="edge24" class="edge">
<title>azurerm_lb_backend_address_pool.frontend&#45;&gt;azurerm_lb.frontend</title>
<path fill="none" stroke="black" d="M1838.33,-429.17C1809.59,-432.36 1779.89,-435.73 1752,-439 1720.46,-442.7 1685.91,-446.95 1655.33,-450.79"/>
<polygon fill="black" stroke="black" points="1654.61,-447.35 1645.12,-452.07 1655.48,-454.3 1654.61,-447.35"/>
</g>
<!-- azurerm_lb_backend_address_pool.proxy -->
<g id="node14" class="node">
<title>azurerm_lb_backend_address_pool.proxy</title>
<polygon fill="none" stroke="black" points="1716,-106 1417,-106 1417,-70 1716,-70 1716,-106"/>
<text text-anchor="middle" x="1566.5" y="-84.3" font-family="sans-serif" font-size="14.00">azurerm_lb_backend_address_pool.proxy</text>
</g>
<!-- azurerm_lb_backend_address_pool.proxy&#45;&gt;azurerm_lb.proxy -->
<g id="edge25" class="edge">
<title>azurerm_lb_backend_address_pool.proxy&#45;&gt;azurerm_lb.proxy</title>
<path fill="none" stroke="black" d="M1482.56,-69.93C1450.86,-63.28 1414.32,-55.93 1381,-50 1336.37,-42.06 1286.24,-34.46 1245.84,-28.66"/>
<polygon fill="black" stroke="black" points="1246.18,-25.18 1235.78,-27.23 1245.19,-32.11 1246.18,-25.18"/>
</g>
<!-- azurerm_lb_backend_address_pool_address.container&#45;1 -->
<g id="node15" class="node">
<title>azurerm_lb_backend_address_pool_address.container&#45;1</title>
<polygon fill="none" stroke="black" points="2198.5,-207 1798.5,-207 1798.5,-171 2198.5,-171 2198.5,-207"/>
<text text-anchor="middle" x="1998.5" y="-185.3" font-family="sans-serif" font-size="14.00">azurerm_lb_backend_address_pool_address.container&#45;1</text>
</g>
<!-- azurerm_lb_backend_address_pool_address.container&#45;1&#45;&gt;azurerm_container_group.backend1 -->
<g id="edge26" class="edge">
<title>azurerm_lb_backend_address_pool_address.container&#45;1&#45;&gt;azurerm_container_group.backend1</title>
<path fill="none" stroke="black" d="M1798.23,-205.68C1768.17,-208.2 1737.69,-210.75 1709.16,-213.14"/>
<polygon fill="black" stroke="black" points="1708.83,-209.66 1699.16,-213.98 1709.42,-216.63 1708.83,-209.66"/>
</g>
<!-- azurerm_lb_backend_address_pool_address.container&#45;1&#45;&gt;azurerm_lb_backend_address_pool.proxy -->
<g id="edge27" class="edge">
<title>azurerm_lb_backend_address_pool_address.container&#45;1&#45;&gt;azurerm_lb_backend_address_pool.proxy</title>
<path fill="none" stroke="black" d="M1828.37,-170.95C1802.19,-165.08 1775.93,-157.3 1752,-147 1733.63,-139.09 1734.2,-128.3 1716,-120 1706.82,-115.81 1697.06,-112.16 1687.11,-108.98"/>
<polygon fill="black" stroke="black" points="1688.1,-105.62 1677.52,-106.07 1686.07,-112.32 1688.1,-105.62"/>
</g>
<!-- azurerm_lb_backend_address_pool_address.container&#45;2 -->
<g id="node16" class="node">
<title>azurerm_lb_backend_address_pool_address.container&#45;2</title>
<polygon fill="none" stroke="black" points="2198.5,-138 1798.5,-138 1798.5,-102 2198.5,-102 2198.5,-138"/>
<text text-anchor="middle" x="1998.5" y="-116.3" font-family="sans-serif" font-size="14.00">azurerm_lb_backend_address_pool_address.container&#45;2</text>
</g>
<!-- azurerm_lb_backend_address_pool_address.container&#45;2&#45;&gt;azurerm_container_group.backend2 -->
<g id="edge28" class="edge">
<title>azurerm_lb_backend_address_pool_address.container&#45;2&#45;&gt;azurerm_container_group.backend2</title>
<path fill="none" stroke="black" d="M1798.23,-132.51C1768.17,-134.4 1737.69,-136.31 1709.16,-138.1"/>
<polygon fill="black" stroke="black" points="1708.92,-134.61 1699.16,-138.73 1709.36,-141.6 1708.92,-134.61"/>
</g>
<!-- azurerm_lb_backend_address_pool_address.container&#45;2&#45;&gt;azurerm_lb_backend_address_pool.proxy -->
<g id="edge29" class="edge">
<title>azurerm_lb_backend_address_pool_address.container&#45;2&#45;&gt;azurerm_lb_backend_address_pool.proxy</title>
<path fill="none" stroke="black" d="M1798.23,-105.17C1774.11,-103.38 1749.72,-101.56 1726.29,-99.82"/>
<polygon fill="black" stroke="black" points="1726.54,-96.33 1716.31,-99.07 1726.02,-103.31 1726.54,-96.33"/>
</g>
<!-- azurerm_lb_backend_address_pool_address.container&#45;3 -->
<g id="node17" class="node">
<title>azurerm_lb_backend_address_pool_address.container&#45;3</title>
<polygon fill="none" stroke="black" points="2681,-268 2281,-268 2281,-232 2681,-232 2681,-268"/>
<text text-anchor="middle" x="2481" y="-246.3" font-family="sans-serif" font-size="14.00">azurerm_lb_backend_address_pool_address.container&#45;3</text>
</g>
<!-- azurerm_lb_backend_address_pool_address.container&#45;3&#45;&gt;azurerm_container_group.frontend1 -->
<g id="edge30" class="edge">
<title>azurerm_lb_backend_address_pool_address.container&#45;3&#45;&gt;azurerm_container_group.frontend1</title>
<path fill="none" stroke="black" d="M2280.75,-250C2234.07,-250 2185.27,-250 2141.66,-250"/>
<polygon fill="black" stroke="black" points="2141.57,-246.5 2131.57,-250 2141.57,-253.5 2141.57,-246.5"/>
</g>
<!-- azurerm_lb_backend_address_pool_address.container&#45;3&#45;&gt;azurerm_lb_backend_address_pool.frontend -->
<g id="edge31" class="edge">
<title>azurerm_lb_backend_address_pool_address.container&#45;3&#45;&gt;azurerm_lb_backend_address_pool.frontend</title>
<path fill="none" stroke="black" d="M2348.4,-268.01C2324.03,-276.02 2300.23,-287.51 2281,-304 2251.09,-329.64 2276.81,-361.76 2245,-385 2222.72,-401.28 2196.13,-411.08 2168.81,-416.63"/>
<polygon fill="black" stroke="black" points="2167.92,-413.24 2158.71,-418.49 2169.18,-420.12 2167.92,-413.24"/>
</g>
<!-- azurerm_lb_backend_address_pool_address.container&#45;4 -->
<g id="node18" class="node">
<title>azurerm_lb_backend_address_pool_address.container&#45;4</title>
<polygon fill="none" stroke="black" points="2681,-349 2281,-349 2281,-313 2681,-313 2681,-349"/>
<text text-anchor="middle" x="2481" y="-327.3" font-family="sans-serif" font-size="14.00">azurerm_lb_backend_address_pool_address.container&#45;4</text>
</g>
<!-- azurerm_lb_backend_address_pool_address.container&#45;4&#45;&gt;azurerm_container_group.frontend2 -->
<g id="edge32" class="edge">
<title>azurerm_lb_backend_address_pool_address.container&#45;4&#45;&gt;azurerm_container_group.frontend2</title>
<path fill="none" stroke="black" d="M2280.75,-319.8C2234.07,-317.18 2185.27,-314.44 2141.66,-311.99"/>
<polygon fill="black" stroke="black" points="2141.75,-308.49 2131.57,-311.42 2141.36,-315.48 2141.75,-308.49"/>
</g>
<!-- azurerm_lb_backend_address_pool_address.container&#45;4&#45;&gt;azurerm_lb_backend_address_pool.frontend -->
<g id="edge33" class="edge">
<title>azurerm_lb_backend_address_pool_address.container&#45;4&#45;&gt;azurerm_lb_backend_address_pool.frontend</title>
<path fill="none" stroke="black" d="M2411.27,-349.02C2364.64,-360.69 2301.44,-375.44 2245,-385 2220.46,-389.15 2194.43,-392.81 2168.84,-395.99"/>
<polygon fill="black" stroke="black" points="2168.18,-392.54 2158.68,-397.23 2169.03,-399.49 2168.18,-392.54"/>
</g>
<!-- azurerm_lb_probe.frontend_http_probe -->
<g id="node19" class="node">
<title>azurerm_lb_probe.frontend_http_probe</title>
<polygon fill="none" stroke="black" points="2141,-484 1856,-484 1856,-448 2141,-448 2141,-484"/>
<text text-anchor="middle" x="1998.5" y="-462.3" font-family="sans-serif" font-size="14.00">azurerm_lb_probe.frontend_http_probe</text>
</g>
<!-- azurerm_lb_probe.frontend_http_probe&#45;&gt;azurerm_lb.frontend -->
<g id="edge34" class="edge">
<title>azurerm_lb_probe.frontend_http_probe&#45;&gt;azurerm_lb.frontend</title>
<path fill="none" stroke="black" d="M1855.81,-464.68C1789.67,-464.07 1713.02,-463.35 1655.39,-462.82"/>
<polygon fill="black" stroke="black" points="1655.25,-459.32 1645.22,-462.72 1655.18,-466.32 1655.25,-459.32"/>
</g>
<!-- azurerm_lb_probe.http_probe -->
<g id="node20" class="node">
<title>azurerm_lb_probe.http_probe</title>
<polygon fill="none" stroke="black" points="1676,-46 1457,-46 1457,-10 1676,-10 1676,-46"/>
<text text-anchor="middle" x="1566.5" y="-24.3" font-family="sans-serif" font-size="14.00">azurerm_lb_probe.http_probe</text>
</g>
<!-- azurerm_lb_probe.http_probe&#45;&gt;azurerm_lb.proxy -->
<g id="edge35" class="edge">
<title>azurerm_lb_probe.http_probe&#45;&gt;azurerm_lb.proxy</title>
<path fill="none" stroke="black" d="M1456.88,-25.27C1390.06,-23.59 1306,-21.47 1245.81,-19.96"/>
<polygon fill="black" stroke="black" points="1245.7,-16.45 1235.61,-19.7 1245.52,-23.45 1245.7,-16.45"/>
</g>
<!-- azurerm_lb_rule.proxy -->
<g id="node21" class="node">
<title>azurerm_lb_rule.proxy</title>
<polygon fill="none" stroke="black" points="2566,-457 2396,-457 2396,-421 2566,-421 2566,-457"/>
<text text-anchor="middle" x="2481" y="-435.3" font-family="sans-serif" font-size="14.00">azurerm_lb_rule.proxy</text>
</g>
<!-- azurerm_lb_rule.proxy&#45;&gt;azurerm_lb_backend_address_pool.frontend -->
<g id="edge36" class="edge">
<title>azurerm_lb_rule.proxy&#45;&gt;azurerm_lb_backend_address_pool.frontend</title>
<path fill="none" stroke="black" d="M2395.75,-434.27C2333.16,-430.75 2245.68,-425.83 2168.83,-421.51"/>
<polygon fill="black" stroke="black" points="2168.72,-418 2158.54,-420.94 2168.33,-424.99 2168.72,-418"/>
</g>
<!-- azurerm_lb_rule.proxy&#45;&gt;azurerm_lb_probe.frontend_http_probe -->
<g id="edge37" class="edge">
<title>azurerm_lb_rule.proxy&#45;&gt;azurerm_lb_probe.frontend_http_probe</title>
<path fill="none" stroke="black" d="M2395.75,-443.73C2328.39,-447.52 2232.19,-452.92 2151.45,-457.46"/>
<polygon fill="black" stroke="black" points="2150.96,-453.98 2141.17,-458.04 2151.36,-460.97 2150.96,-453.98"/>
</g>
<!-- azurerm_lb_rule.proxy_80 -->
<g id="node22" class="node">
<title>azurerm_lb_rule.proxy_80</title>
<polygon fill="none" stroke="black" points="2096,-54 1901,-54 1901,-18 2096,-18 2096,-54"/>
<text text-anchor="middle" x="1998.5" y="-32.3" font-family="sans-serif" font-size="14.00">azurerm_lb_rule.proxy_80</text>
</g>
<!-- azurerm_lb_rule.proxy_80&#45;&gt;azurerm_lb_backend_address_pool.proxy -->
<g id="edge38" class="edge">
<title>azurerm_lb_rule.proxy_80&#45;&gt;azurerm_lb_backend_address_pool.proxy</title>
<path fill="none" stroke="black" d="M1901,-47.67C1849.5,-53.9 1784.82,-61.72 1726.15,-68.81"/>
<polygon fill="black" stroke="black" points="1725.54,-65.36 1716.04,-70.04 1726.38,-72.31 1725.54,-65.36"/>
</g>
<!-- azurerm_lb_rule.proxy_80&#45;&gt;azurerm_lb_probe.http_probe -->
<g id="edge39" class="edge">
<title>azurerm_lb_rule.proxy_80&#45;&gt;azurerm_lb_probe.http_probe</title>
<path fill="none" stroke="black" d="M1901,-34.2C1837.53,-33.02 1754.01,-31.47 1686.44,-30.21"/>
<polygon fill="black" stroke="black" points="1686.23,-26.71 1676.16,-30.02 1686.1,-33.71 1686.23,-26.71"/>
</g>
<!-- azurerm_network_security_group.frontend_nsg -->
<g id="node23" class="node">
<title>azurerm_network_security_group.frontend_nsg</title>
<polygon fill="none" stroke="black" points="597,-380 255,-380 255,-344 597,-344 597,-380"/>
<text text-anchor="middle" x="426" y="-358.3" font-family="sans-serif" font-size="14.00">azurerm_network_security_group.frontend_nsg</text>
</g>
<!-- azurerm_network_security_group.frontend_nsg&#45;&gt;azurerm_resource_group.GPA -->
<g id="edge40" class="edge">
<title>azurerm_network_security_group.frontend_nsg&#45;&gt;azurerm_resource_group.GPA</title>
<path fill="none" stroke="black" d="M308.79,-343.98C290.77,-341.05 272.37,-338 255,-335 242.07,-332.77 228.51,-330.34 215.09,-327.89"/>
<polygon fill="black" stroke="black" points="215.34,-324.38 204.87,-326.02 214.08,-331.26 215.34,-324.38"/>
</g>
<!-- azurerm_network_security_group.proxy -->
<g id="node24" class="node">
<title>azurerm_network_security_group.proxy</title>
<polygon fill="none" stroke="black" points="571,-265 281,-265 281,-229 571,-229 571,-265"/>
<text text-anchor="middle" x="426" y="-243.3" font-family="sans-serif" font-size="14.00">azurerm_network_security_group.proxy</text>
</g>
<!-- azurerm_network_security_group.proxy&#45;&gt;azurerm_resource_group.GPA -->
<g id="edge41" class="edge">
<title>azurerm_network_security_group.proxy&#45;&gt;azurerm_resource_group.GPA</title>
<path fill="none" stroke="black" d="M331.92,-265.05C294.67,-272.28 251.63,-280.63 213.45,-288.03"/>
<polygon fill="black" stroke="black" points="212.5,-284.65 203.35,-289.99 213.83,-291.52 212.5,-284.65"/>
</g>
<!-- azurerm_public_ip.firewall&#45;&gt;azurerm_resource_group.GPA -->
<g id="edge42" class="edge">
<title>azurerm_public_ip.firewall&#45;&gt;azurerm_resource_group.GPA</title>
<path fill="none" stroke="black" d="M676.56,-516.45C568.63,-513.44 391.79,-497.88 255,-434 204.28,-410.31 157.83,-363.36 131.94,-333.94"/>
<polygon fill="black" stroke="black" points="134.38,-331.42 125.19,-326.14 129.09,-336 134.38,-331.42"/>
</g>
<!-- azurerm_public_ip.frontend&#45;&gt;azurerm_resource_group.GPA -->
<g id="edge43" class="edge">
<title>azurerm_public_ip.frontend&#45;&gt;azurerm_resource_group.GPA</title>
<path fill="none" stroke="black" d="M671.96,-458.76C565.41,-452.83 394.67,-436.11 255,-389 214.67,-375.4 172.68,-350.45 144.43,-331.83"/>
<polygon fill="black" stroke="black" points="146.01,-328.68 135.76,-326.02 142.12,-334.49 146.01,-328.68"/>
</g>
<!-- azurerm_public_ip.proxy&#45;&gt;azurerm_resource_group.GPA -->
<g id="edge44" class="edge">
<title>azurerm_public_ip.proxy&#45;&gt;azurerm_resource_group.GPA</title>
<path fill="none" stroke="black" d="M682.35,-27.37C572.6,-16.96 387.07,-14.78 255,-94 182.47,-137.5 138.37,-233.11 120.18,-280.4"/>
<polygon fill="black" stroke="black" points="116.82,-279.39 116.6,-289.99 123.38,-281.84 116.82,-279.39"/>
</g>
<!-- azurerm_storage_account.backup&#45;&gt;azurerm_resource_group.GPA -->
<g id="edge45" class="edge">
<title>azurerm_storage_account.backup&#45;&gt;azurerm_resource_group.GPA</title>
<path fill="none" stroke="black" d="M306.86,-204.05C289.18,-208.34 271.4,-213.6 255,-220 213.59,-236.17 170.64,-263.97 142.44,-284.01"/>
<polygon fill="black" stroke="black" points="140.25,-281.27 134.18,-289.96 144.34,-286.95 140.25,-281.27"/>
</g>
<!-- azurerm_storage_share.DB&#45;Backup&#45;&gt;azurerm_storage_account.backup -->
<g id="edge46" class="edge">
<title>azurerm_storage_share.DB&#45;Backup&#45;&gt;azurerm_storage_account.backup</title>
<path fill="none" stroke="black" d="M657.97,-150.06C624.26,-155.3 587.28,-161.06 552.99,-166.39"/>
<polygon fill="black" stroke="black" points="552.26,-162.96 542.92,-167.96 553.34,-169.88 552.26,-162.96"/>
</g>
<!-- azurerm_virtual_network.proxy -->
<g id="node36" class="node">
<title>azurerm_virtual_network.proxy</title>
<polygon fill="none" stroke="black" points="541.5,-326 310.5,-326 310.5,-290 541.5,-290 541.5,-326"/>
<text text-anchor="middle" x="426" y="-304.3" font-family="sans-serif" font-size="14.00">azurerm_virtual_network.proxy</text>
</g>
<!-- azurerm_subnet.firewall&#45;&gt;azurerm_virtual_network.proxy -->
<g id="edge47" class="edge">
<title>azurerm_subnet.firewall&#45;&gt;azurerm_virtual_network.proxy</title>
<path fill="none" stroke="black" d="M737.26,-389.88C702.07,-373.24 647.08,-349.09 597,-335 582.49,-330.92 567.09,-327.39 551.73,-324.37"/>
<polygon fill="black" stroke="black" points="552.12,-320.88 541.64,-322.45 550.81,-327.76 552.12,-320.88"/>
</g>
<!-- azurerm_subnet.frontend&#45;&gt;azurerm_virtual_network.proxy -->
<g id="edge48" class="edge">
<title>azurerm_subnet.frontend&#45;&gt;azurerm_virtual_network.proxy</title>
<path fill="none" stroke="black" d="M1470.39,-309.83C1265.28,-309.47 781.39,-308.62 551.92,-308.22"/>
<polygon fill="black" stroke="black" points="551.86,-304.72 541.86,-308.2 551.85,-311.72 551.86,-304.72"/>
</g>
<!-- azurerm_subnet.proxy&#45;&gt;azurerm_virtual_network.proxy -->
<g id="edge49" class="edge">
<title>azurerm_subnet.proxy&#45;&gt;azurerm_virtual_network.proxy</title>
<path fill="none" stroke="black" d="M688.67,-285.38C647.44,-288.94 597.16,-293.29 551.74,-297.22"/>
<polygon fill="black" stroke="black" points="551.18,-293.75 541.52,-298.1 551.79,-300.72 551.18,-293.75"/>
</g>
<!-- azurerm_subnet_network_security_group_association.frontend&#45;proxy -->
<g id="node34" class="node">
<title>azurerm_subnet_network_security_group_association.frontend&#45;proxy</title>
<polygon fill="none" stroke="black" points="2245,-376 1752,-376 1752,-340 2245,-340 2245,-376"/>
<text text-anchor="middle" x="1998.5" y="-354.3" font-family="sans-serif" font-size="14.00">azurerm_subnet_network_security_group_association.frontend&#45;proxy</text>
</g>
<!-- azurerm_subnet_network_security_group_association.frontend&#45;proxy&#45;&gt;azurerm_network_security_group.frontend_nsg -->
<g id="edge50" class="edge">
<title>azurerm_subnet_network_security_group_association.frontend&#45;proxy&#45;&gt;azurerm_network_security_group.frontend_nsg</title>
<path fill="none" stroke="black" d="M1751.68,-358.63C1434.25,-359.43 889.22,-360.82 607.44,-361.54"/>
<polygon fill="black" stroke="black" points="607.11,-358.04 597.12,-361.57 607.12,-365.04 607.11,-358.04"/>
</g>
<!-- azurerm_subnet_network_security_group_association.frontend&#45;proxy&#45;&gt;azurerm_subnet.frontend -->
<g id="edge51" class="edge">
<title>azurerm_subnet_network_security_group_association.frontend&#45;proxy&#45;&gt;azurerm_subnet.frontend</title>
<path fill="none" stroke="black" d="M1832.75,-339.97C1805.76,-336.99 1778.1,-333.92 1752,-331 1726.4,-328.14 1698.81,-325.01 1672.97,-322.07"/>
<polygon fill="black" stroke="black" points="1673.11,-318.57 1662.78,-320.91 1672.32,-325.52 1673.11,-318.57"/>
</g>
<!-- azurerm_subnet_network_security_group_association.proxy -->
<g id="node35" class="node">
<title>azurerm_subnet_network_security_group_association.proxy</title>
<polygon fill="none" stroke="black" points="1381,-220 953,-220 953,-184 1381,-184 1381,-220"/>
<text text-anchor="middle" x="1167" y="-198.3" font-family="sans-serif" font-size="14.00">azurerm_subnet_network_security_group_association.proxy</text>
</g>
<!-- azurerm_subnet_network_security_group_association.proxy&#45;&gt;azurerm_network_security_group.proxy -->
<g id="edge52" class="edge">
<title>azurerm_subnet_network_security_group_association.proxy&#45;&gt;azurerm_network_security_group.proxy</title>
<path fill="none" stroke="black" d="M952.75,-214.99C834.11,-222.21 689.13,-231.04 581.48,-237.59"/>
<polygon fill="black" stroke="black" points="580.95,-234.12 571.18,-238.22 581.38,-241.11 580.95,-234.12"/>
</g>
<!-- azurerm_subnet_network_security_group_association.proxy&#45;&gt;azurerm_subnet.proxy -->
<g id="edge53" class="edge">
<title>azurerm_subnet_network_security_group_association.proxy&#45;&gt;azurerm_subnet.proxy</title>
<path fill="none" stroke="black" d="M1022.98,-220.01C999.47,-223.96 975.45,-228.61 953,-234 936.6,-237.93 933.24,-241.46 917,-246 902.32,-250.1 886.68,-254.06 871.35,-257.7"/>
<polygon fill="black" stroke="black" points="870.27,-254.36 861.34,-260.06 871.88,-261.18 870.27,-254.36"/>
</g>
<!-- azurerm_virtual_network.proxy&#45;&gt;azurerm_resource_group.GPA -->
<g id="edge54" class="edge">
<title>azurerm_virtual_network.proxy&#45;&gt;azurerm_resource_group.GPA</title>
<path fill="none" stroke="black" d="M310.12,-308C283.75,-308 255.66,-308 229.13,-308"/>
<polygon fill="black" stroke="black" points="229.05,-304.5 219.05,-308 229.05,-311.5 229.05,-304.5"/>
</g>
</g>
</svg>
